<?xml version="1.0" encoding="utf-8"?>
<!-- Generator: Adobe Illustrator 21.0.0, SVG Export Plug-In . SVG Version: 6.00 Build 0)  -->
<svg version="1.1" id="Layer_1" xmlns="http://www.w3.org/2000/svg" xmlns:xlink="http://www.w3.org/1999/xlink" x="0px" y="0px"
	 viewBox="0 0 512 512" style="enable-background:new 0 0 512 512;" xml:space="preserve">
<g>
	<path d="M256,0C114.6,0,0,114.6,0,256c0,141.4,114.6,256,256,256c141.4,0,256-114.6,256-256C512,114.6,397.4,0,256,0z M395.3,336.7
		L256,417.1l-139.3-80.5V175.9l62.9-36.3l-0.2-0.1h0.1l76.5-44l76.6,44h-0.1l-0.2,0.1l62.9,36.3L395.3,336.7L395.3,336.7z
		 M139.4,270.1l50.1,28.5v53.9l55.3,31.9V263.3l-105.3-60.8V270.1z M255.9,183.4l-53.6-30.8l-52.1,30.1l105.8,61.1l105.8-61.1
		l-52.2-30.2L255.9,183.4z M267.3,384.5l55.6-32.1v-53.8l49.7-28.3v-67.8l-105.3,60.9V384.5z"/>
</g>
</svg>
